<svg id="SvgjsSvg1006" width="288" height="288" xmlns="http://www.w3.org/2000/svg" version="1.1" xmlns:xlink="http://www.w3.org/1999/xlink" xmlns:svgjs="http://svgjs.com/svgjs"><defs id="SvgjsDefs1007"></defs><g id="SvgjsG1008"><svg xmlns="http://www.w3.org/2000/svg" width="288" height="288" viewBox="0 0 1472 252"><g transform="matrix(.13333 0 0 -.13333 0 252)" fill="#000000" class="color000 svgShape"><path fill="#289674" fill-rule="evenodd" d="M 4.07813,1857.28 H 429.758 v -155.71 c 167.75,227.75 540.207,235.4 670.042,-8.14 h 1.56 c 134.27,181.26 413.68,236.11 595.13,131.15 114.4,-66.17 180.15,-203.58 172.55,-398.62 l -0.05,0.01 V 488.68 h -435.63 v 779.77 l -0.27,-0.28 c -2.04,108.07 -43.54,166 -135.41,160.73 -90.73,-5.21 -138.95,-79.51 -141.41,-189.18 V 488.68 H 717.18 v 787.14 C 713.344,1378.97 671.711,1433.34 582,1428.9 432.578,1421.5 439.992,1233.82 439.816,1233.9 V 488.68 H 4.07813 Z M 2614.01,1878.42 c 382.9,0 693.31,-315.89 693.31,-705.56 0,-389.672 -310.41,-705.563 -693.31,-705.563 -382.9,0 -693.31,315.891 -693.31,705.563 0,389.67 310.41,705.56 693.31,705.56 z m 0,-451.46 c 130.34,0 235.99,-113.77 235.99,-254.1 0,-140.33 -105.65,-254.102 -235.99,-254.102 -130.34,0 -235.99,113.772 -235.99,254.102 0,140.33 105.65,254.1 235.99,254.1 z m 788.16,430.32 h 425.68 v -116.11 c 144.43,142.42 389.24,178.51 553.63,83.41 114.41,-66.17 180.15,-203.58 172.54,-398.62 l -0.04,0.01 V 488.68 h -435.63 v 779.77 l -0.28,-0.28 c -2.03,108.07 -43.53,166 -135.39,160.73 -90.74,-5.21 -129.33,-65.27 -141.42,-189.18 V 488.68 h -3.35 -435.74 v 1204.75 z m 3133.85,21.14 c 382.9,0 693.3,-315.89 693.3,-705.56 0,-389.672 -310.4,-705.563 -693.3,-705.563 -382.91,0 -693.31,315.891 -693.31,705.563 0,389.67 310.4,705.56 693.31,705.56 z m 0,-451.46 c 130.34,0 235.99,-113.77 235.99,-254.1 0,-140.33 -105.65,-254.102 -235.99,-254.102 -130.34,0 -236,113.772 -236,254.102 0,140.33 105.66,254.1 236,254.1 z m -1315.61,446.41 c 61.81,0 120.79,-8.64 175.96,-24.73 h 443.3 l -142.32,-204.8 c 1.77,-2.29 3.53,-4.6 5.27,-6.93 77.46,-103.37 119.84,-234.51 126.15,-371.32 6.27,-136.13 -43.59,-263.85 -128.11,-366.617 147.61,-235.297 156,-472.379 -34.45,-712.012 -297.63,-288.297 -809.6,-194.94928 -1092.69,78.769 78.21,108.379 156.42,216.754 234.62,325.129 229.35,-238.14 635.12,-242.757 549.27,89.325 -51.42,-13.461 -104.75,-20.707 -158.79,-20.707 -212.3,0 -398.55,103.652 -500.78,267.558 -59.55,95.485 -83.93,212.535 -85.78,338.555 -5.04,342.34 260.64,607.78 608.35,607.78 z m -9.72,-437.41 c 95.56,0 173.03,-77.48 173.03,-173.05 0,-95.56 -77.47,-173.03 -173.03,-173.03 -95.57,0 -173.04,77.47 -173.04,173.03 0,95.57 77.47,173.05 173.04,173.05 z m 2723.04,442.46 c 382.9,0 693.31,-315.89 693.31,-705.56 0,-389.672 -310.41,-705.563 -693.31,-705.563 -382.91,0 -693.31,315.891 -693.31,705.563 0,389.67 310.4,705.56 693.31,705.56 z m 0,-451.46 c 130.33,0 235.99,-113.77 235.99,-254.1 0,-140.33 -105.66,-254.102 -235.99,-254.102 -130.34,0 -236,113.772 -236,254.102 0,140.33 105.66,254.1 236,254.1 z m 1435.75,420.41 v -391.33 c -56.38,27.24 -168.98,47.12 -224.49,16.91 -33.48,-18.23 -51.61,-93.39 -3.66,-139.16 97.12,-92.74 236.16,-195.06 257.02,-385.981 60.94,-558.032 -546.69,-472.719 -717.58,-443.684 l -8.38,418.977 c 181.62,-65.559 255.8,-3.387 248.61,72.351 -6.86,72.487 -130.71,148.587 -178.36,207.747 -107.46,107.26 -172.94,390.62 35.66,554.62 137.37,108 393.84,127.68 591.18,89.55 z m 753.02,29.37 c 299.5,0 526.2,-193.35 623.1,-464.1 L 10018,891.305 c 172.7,-78.02 411.8,-11.055 613.3,171.125 5.6,-120.266 27.3,-330.512 32.2,-444.481 -165.1,-102.226 -358.3,-150.652 -547.7,-150.652 -419.8,0 -689.99,292.43 -686.64,698.863 3.36,406.42 310.41,710.58 693.34,710.58 z m 132.8,-414.01 -413.96,-301.67 c -56.34,260.28 235.86,454.2 413.96,301.67 z m 620.5,-567.074 c 21.4,0 41.5,-4.074 60.5,-12.238 19,-8.238 35.7,-19.758 50.2,-34.652 14.4,-14.883 25.7,-32.071 33.7,-51.536 7.9,-19.546 11.9,-40.238 11.9,-62.21 0,-29.071 -7,-55.985 -20.9,-80.61 -13.9,-24.695 -33,-44.242 -57,-58.558 -23.9,-14.317 -50.1,-21.477 -78.4,-21.477 -28.3,0 -54.5,7.16 -78.4,21.477 -24,14.316 -43.1,33.863 -57,58.558 -13.9,24.625 -20.9,51.539 -20.9,80.61 0,29.066 7,55.976 20.9,80.609 13.9,24.695 33,44.238 57,58.555 23.9,14.316 50.1,21.472 78.4,21.472 z m 0.4,-31.492 c -22.7,0 -43.7,-5.801 -63.1,-17.328 -19.3,-11.523 -34.6,-27.203 -45.9,-47.031 -11.3,-19.828 -16.9,-41.45 -16.9,-64.785 0,-23.34 5.7,-44.961 17.1,-64.856 11.3,-19.976 26.6,-35.648 45.9,-47.109 19.3,-11.453 40.3,-17.18 62.8,-17.18 23,0 44.1,5.793 63.2,17.324 19.1,11.524 34.3,27.196 45.4,47.035 11.2,19.825 16.7,41.446 16.7,64.786 0,23.48 -5.5,45.168 -16.7,65 -11.1,19.832 -26.3,35.511 -45.5,46.964 -19.2,11.45 -40.1,17.18 -63,17.18 z m 69.6,-220.125 h -29.8 l -14.1,48.695 c -1.1,3.387 -2.4,6.485 -4.1,9.297 -1.7,2.86 -3.7,5.274 -5.9,7.324 -2.3,2.055 -4.8,3.661 -7.5,4.833 -2.7,1.171 -5.6,1.769 -8.7,1.769 h -29.7 v -71.918 h -27.6 v 178.977 h 66.4 c 4,0 7.7,-0.082 11.3,-0.286 3.6,-0.195 7,-0.726 10.3,-1.527 3.3,-0.848 6.4,-2.051 9.5,-3.664 3,-1.609 5.9,-3.824 8.6,-6.641 2.4,-2.535 4.5,-5.351 6.3,-8.453 1.8,-3.093 3.3,-6.398 4.6,-9.855 1.2,-3.465 2.1,-7.047 2.7,-10.789 0.6,-3.703 0.9,-7.446 0.9,-11.153 0,-10.902 -2.2,-20.281 -6.5,-28.089 -4.4,-7.848 -10.4,-13.84 -18.1,-17.993 6.4,-5.828 11.5,-15.003 15.4,-27.609 z m -99.8,102.703 h 36.8 c 5,0 9.2,0.41 12.8,1.246 3.5,0.817 6.4,2.18 8.7,4.071 2.2,1.851 3.8,4.343 4.9,7.406 1,3.058 1.5,6.797 1.5,11.183 0,7.973 -2,13.809 -6.1,17.551 -4.1,3.707 -10.4,5.598 -18.9,5.598 h -39.7 v -47.055" class="color231f20 svgShape"></path><path fill="none" stroke="#1f2322" stroke-miterlimit="22.926" stroke-width="5.669" d="M 4.07813,1857.28 H 429.758 v -155.71 c 167.75,227.75 540.207,235.4 670.042,-8.14 h 1.56 c 134.27,181.26 413.68,236.11 595.13,131.15 114.4,-66.17 180.15,-203.58 172.55,-398.62 l -0.05,0.01 V 488.68 h -435.63 v 779.77 l -0.27,-0.28 c -2.04,108.07 -43.54,166 -135.41,160.73 -90.73,-5.21 -138.95,-79.51 -141.41,-189.18 V 488.68 H 717.18 v 787.14 C 713.344,1378.97 671.711,1433.34 582,1428.9 432.578,1421.5 439.992,1233.82 439.816,1233.9 V 488.68 H 4.07813 Z M 2614.01,1878.42 c 382.9,0 693.31,-315.89 693.31,-705.56 0,-389.672 -310.41,-705.563 -693.31,-705.563 -382.9,0 -693.31,315.891 -693.31,705.563 0,389.67 310.41,705.56 693.31,705.56 z m 0,-451.46 c 130.34,0 235.99,-113.77 235.99,-254.1 0,-140.33 -105.65,-254.102 -235.99,-254.102 -130.34,0 -235.99,113.772 -235.99,254.102 0,140.33 105.65,254.1 235.99,254.1 z m 788.16,430.32 h 425.68 v -116.11 c 144.43,142.42 389.24,178.51 553.63,83.41 114.41,-66.17 180.15,-203.58 172.54,-398.62 l -0.04,0.01 V 488.68 h -435.63 v 779.77 l -0.28,-0.28 c -2.03,108.07 -43.53,166 -135.39,160.73 -90.74,-5.21 -129.33,-65.27 -141.42,-189.18 V 488.68 h -3.35 -435.74 v 1204.75 z m 3133.85,21.14 c 382.9,0 693.3,-315.89 693.3,-705.56 0,-389.672 -310.4,-705.563 -693.3,-705.563 -382.91,0 -693.31,315.891 -693.31,705.563 0,389.67 310.4,705.56 693.31,705.56 z m 0,-451.46 c 130.34,0 235.99,-113.77 235.99,-254.1 0,-140.33 -105.65,-254.102 -235.99,-254.102 -130.34,0 -236,113.772 -236,254.102 0,140.33 105.66,254.1 236,254.1 z m -1315.61,446.41 c 61.81,0 120.79,-8.64 175.96,-24.73 h 443.3 l -142.32,-204.8 c 1.77,-2.29 3.53,-4.6 5.27,-6.93 77.46,-103.37 119.84,-234.51 126.15,-371.32 6.27,-136.13 -43.59,-263.85 -128.11,-366.617 147.61,-235.297 156,-472.379 -34.45,-712.012 -297.63,-288.297 -809.6,-194.94928 -1092.69,78.769 78.21,108.379 156.42,216.754 234.62,325.129 229.35,-238.14 635.12,-242.757 549.27,89.325 -51.42,-13.461 -104.75,-20.707 -158.79,-20.707 -212.3,0 -398.55,103.652 -500.78,267.558 -59.55,95.485 -83.93,212.535 -85.78,338.555 -5.04,342.34 260.64,607.78 608.35,607.78 z m -9.72,-437.41 c 95.56,0 173.03,-77.48 173.03,-173.05 0,-95.56 -77.47,-173.03 -173.03,-173.03 -95.57,0 -173.04,77.47 -173.04,173.03 0,95.57 77.47,173.05 173.04,173.05 z m 2723.04,442.46 c 382.9,0 693.31,-315.89 693.31,-705.56 0,-389.672 -310.41,-705.563 -693.31,-705.563 -382.91,0 -693.31,315.891 -693.31,705.563 0,389.67 310.4,705.56 693.31,705.56 z m 0,-451.46 c 130.33,0 235.99,-113.77 235.99,-254.1 0,-140.33 -105.66,-254.102 -235.99,-254.102 -130.34,0 -236,113.772 -236,254.102 0,140.33 105.66,254.1 236,254.1 z m 1435.75,420.41 v -391.33 c -56.38,27.24 -168.98,47.12 -224.49,16.91 -33.48,-18.23 -51.61,-93.39 -3.66,-139.16 97.12,-92.74 236.16,-195.06 257.02,-385.981 60.94,-558.032 -546.69,-472.719 -717.58,-443.684 l -8.38,418.977 c 181.62,-65.559 255.8,-3.387 248.61,72.351 -6.86,72.487 -130.71,148.587 -178.36,207.747 -107.46,107.26 -172.94,390.62 35.66,554.62 137.37,108 393.84,127.68 591.18,89.55 z m 753.02,29.37 c 299.5,0 526.2,-193.35 623.1,-464.1 L 10018,891.305 c 172.7,-78.02 411.8,-11.055 613.3,171.125 5.6,-120.266 27.3,-330.512 32.2,-444.481 -165.1,-102.226 -358.3,-150.652 -547.7,-150.652 -419.8,0 -689.99,292.43 -686.64,698.863 3.36,406.42 310.41,710.58 693.34,710.58 z m 132.8,-414.01 -413.96,-301.67 c -56.34,260.28 235.86,454.2 413.96,301.67 z m 620.5,-567.074 c 21.4,0 41.5,-4.074 60.5,-12.238 19,-8.238 35.7,-19.758 50.2,-34.652 14.4,-14.883 25.7,-32.071 33.7,-51.536 7.9,-19.546 11.9,-40.238 11.9,-62.21 0,-29.071 -7,-55.985 -20.9,-80.61 -13.9,-24.695 -33,-44.242 -57,-58.558 -23.9,-14.317 -50.1,-21.477 -78.4,-21.477 -28.3,0 -54.5,7.16 -78.4,21.477 -24,14.316 -43.1,33.863 -57,58.558 -13.9,24.625 -20.9,51.539 -20.9,80.61 0,29.066 7,55.976 20.9,80.609 13.9,24.695 33,44.238 57,58.555 23.9,14.316 50.1,21.472 78.4,21.472 z m 0.4,-31.492 c -22.7,0 -43.7,-5.801 -63.1,-17.328 -19.3,-11.523 -34.6,-27.203 -45.9,-47.031 -11.3,-19.828 -16.9,-41.45 -16.9,-64.785 0,-23.34 5.7,-44.961 17.1,-64.856 11.3,-19.976 26.6,-35.648 45.9,-47.109 19.3,-11.453 40.3,-17.18 62.8,-17.18 23,0 44.1,5.793 63.2,17.324 19.1,11.524 34.3,27.196 45.4,47.035 11.2,19.825 16.7,41.446 16.7,64.786 0,23.48 -5.5,45.168 -16.7,65 -11.1,19.832 -26.3,35.511 -45.5,46.964 -19.2,11.45 -40.1,17.18 -63,17.18 z m 69.6,-220.125 h -29.8 l -14.1,48.695 c -1.1,3.387 -2.4,6.485 -4.1,9.297 -1.7,2.86 -3.7,5.274 -5.9,7.324 -2.3,2.055 -4.8,3.661 -7.5,4.833 -2.7,1.171 -5.6,1.769 -8.7,1.769 h -29.7 v -71.918 h -27.6 v 178.977 h 66.4 c 4,0 7.7,-0.082 11.3,-0.286 3.6,-0.195 7,-0.726 10.3,-1.527 3.3,-0.848 6.4,-2.051 9.5,-3.664 3,-1.609 5.9,-3.824 8.6,-6.641 2.4,-2.535 4.5,-5.351 6.3,-8.453 1.8,-3.093 3.3,-6.398 4.6,-9.855 1.2,-3.465 2.1,-7.047 2.7,-10.789 0.6,-3.703 0.9,-7.446 0.9,-11.153 0,-10.902 -2.2,-20.281 -6.5,-28.089 -4.4,-7.848 -10.4,-13.84 -18.1,-17.993 6.4,-5.828 11.5,-15.003 15.4,-27.609 z m -99.8,102.703 h 36.8 c 5,0 9.2,0.41 12.8,1.246 3.5,0.817 6.4,2.18 8.7,4.071 2.2,1.851 3.8,4.343 4.9,7.406 1,3.058 1.5,6.797 1.5,11.183 0,7.973 -2,13.809 -6.1,17.551 -4.1,3.707 -10.4,5.598 -18.9,5.598 h -39.7 z" class="colorStroke231f20 svgStroke"></path></g></svg></g></svg>